<svg id="Layer_1" enable-background="new 0 0 512 512" height="512" viewBox="0 0 512 512" width="512" xmlns="http://www.w3.org/2000/svg"><g><path d="m428.08 0h-344.16c-8.284 0-15 6.716-15 15v482c0 8.284 6.716 15 15 15h344.16c8.284 0 15-6.716 15-15v-482c0-8.284-6.716-15-15-15zm-15 30v338.488h-314.16v-338.488zm-314.16 452v-83.512h314.16v83.512z"/><path d="m256 424.641c-8.271 0-15 6.729-15 15s6.729 15 15 15 15-6.729 15-15-6.729-15-15-15z"/><path d="m199.378 267.741v4.892 47.797c0 8.284 6.716 15 15 15h83.36c8.284 0 15-6.716 15-15v-47.797c0-.606-.046-1.2-.116-1.788v-4.899c0-19.574 6.479-38.441 18.245-53.128 13.563-16.928 21.031-38.191 21.031-59.871 0-26.286-10.459-50.824-29.451-69.094-18.978-18.257-43.904-27.741-70.227-26.731-50.132 1.942-90.577 42.755-92.076 92.914-.671 22.434 6.595 44.493 20.456 62.113 12.109 15.391 18.778 35.134 18.778 55.592zm30 37.689v-17.797h53.36v17.797zm-39.247-154.498c1.03-34.459 28.813-62.498 63.252-63.832 18.061-.698 35.222 5.824 48.267 18.374 13.058 12.562 20.249 29.422 20.249 47.474 0 15.103-4.994 29.319-14.443 41.114-14.324 17.879-22.892 40.191-24.54 63.571h-53.951c-1.931-23.525-10.561-45.952-24.785-64.033-9.521-12.101-14.509-27.254-14.049-42.668z"/></g></svg>
